<svg xmlns="http://www.w3.org/2000/svg" width="47" height="48"><path d="M 0 24 L 0 0 L 47 0 L 47 48 L 0 48" fill="rgb(0,122,204)"></path><path d="M 10.305 24.084 L 10.305 26.04 L 16.415 26.04 L 16.415 43.8 L 20.75 43.8 L 20.75 26.04 L 26.86 26.04 L 26.86 24.12 C 26.86 23.04 26.86 22.164 26.813 22.14 C 26.813 22.104 23.089 22.092 18.565 22.092 L 10.34 22.128 L 10.34 24.096 Z M 37.764 22.08 C 38.963 22.368 39.879 22.92 40.702 23.796 C 41.137 24.276 41.783 25.116 41.83 25.332 C 41.83 25.404 39.797 26.808 38.563 27.588 C 38.516 27.624 38.328 27.42 38.14 27.108 C 37.529 26.22 36.907 25.836 35.931 25.764 C 34.521 25.668 33.581 26.424 33.581 27.684 C 33.581 28.068 33.652 28.284 33.793 28.596 C 34.11 29.256 34.698 29.652 36.519 30.468 C 39.879 31.944 41.336 32.916 42.218 34.308 C 43.216 35.868 43.44 38.316 42.77 40.152 C 42.018 42.156 40.185 43.512 37.565 43.956 C 36.742 44.1 34.862 44.076 33.981 43.92 C 32.101 43.56 30.303 42.6 29.199 41.364 C 28.764 40.884 27.93 39.6 27.977 39.516 L 28.423 39.228 L 30.186 38.184 L 31.513 37.392 L 31.819 37.812 C 32.207 38.436 33.076 39.276 33.581 39.564 C 35.109 40.368 37.153 40.26 38.164 39.324 C 38.599 38.916 38.787 38.484 38.787 37.884 C 38.787 37.332 38.704 37.08 38.434 36.66 C 38.058 36.132 37.306 35.7 35.191 34.74 C 32.759 33.684 31.725 33.012 30.761 31.98 C 30.209 31.356 29.704 30.384 29.469 29.58 C 29.293 28.884 29.234 27.18 29.398 26.496 C 29.904 24.096 31.678 22.416 34.216 21.936 C 35.038 21.768 36.977 21.84 37.788 22.056 Z" fill="rgb(255,255,255)"></path></svg>