<svg xmlns="http://www.w3.org/2000/svg" width="429.154" height="49.74"><g data-name="Group 1"><path data-name="Path 1" d="M0 44.59v-2.754l3.018-.293.85-.967v-20.83H0v-2.285l3.867-1.787a17.939 17.939 0 011.509-7.617A14.392 14.392 0 019.961 2.52a13.582 13.582 0 013.5-1.86 11.2 11.2 0 013.765-.659 6.509 6.509 0 014.116 1.2 3.849 3.849 0 011.539 3.189 3.1 3.1 0 01-.894 2.183 6.307 6.307 0 01-2.593 1.538l-5.83-5.156a7.6 7.6 0 00-1.758 3.486 23.019 23.019 0 00-.586 5.625v4.072h8.174v3.6H11.22v20.897l.967.908 4.014.293v2.754zm26.647-29.941h2.871v18.6q0 3.574 1.333 5.142t4.38 1.567a13.159 13.159 0 002.271-.22 25.2 25.2 0 002.886-.718V19.86h-3.9v-2.4l8.525-2.812h2.754v26.1l.82.908 3.135.234v2.7H40.387v-3.311a29.057 29.057 0 01-5.522 2.945 13 13 0 01-4.556.894q-4.16 0-6.2-2.52t-2.032-7.735v-15h-3.9v-2.4zM52.854 44.59v-2.7l3.076-.234.85-.908V20.039h-4.1v-2.4l8.643-2.812h2.9v3.545a40.108 40.108 0 015.917-2.782 13.327 13.327 0 014.336-.879q4.1 0 6.123 2.461t2.021 7.5v16.08l.791.908 3.164.234v2.696H71.898v-2.7l2.578-.234.82-.908V26.397a7.663 7.663 0 00-1.289-4.907 5.01 5.01 0 00-4.1-1.567 13.933 13.933 0 00-2.5.264q-1.421.264-3.179.762v19.8l.82.908 2.637.234v2.699zm60.485-2.7a27.534 27.534 0 01-5.742 2.388 20.738 20.738 0 01-5.6.776 13.891 13.891 0 01-10.41-4.064 14.627 14.627 0 01-3.97-10.664 15.179 15.179 0 014.351-11.191 15.029 15.029 0 0111.118-4.365 12.671 12.671 0 017.163 1.831 5.475 5.475 0 012.739 4.7 3.889 3.889 0 01-1.216 2.944 4.3 4.3 0 01-3.091 1.157 6.136 6.136 0 01-1.89-.278 5.723 5.723 0 01-1.655-.864v-6.357a8.031 8.031 0 00-.864-.161 5.585 5.585 0 00-.659-.044 6.69 6.69 0 00-5.6 3.149 13.425 13.425 0 00-2.256 8.013q0 5.332 2.49 8.408a8.244 8.244 0 006.768 3.076 13.019 13.019 0 004.043-.688 19.732 19.732 0 004.277-2.036zm3.971-22.148h-3.9v-2.285l4.424-2.52 3.135-6.24h3.785v7.441h8.877v3.6h-8.877V34.69q0 3.369 1.084 4.6t3.9 1.23a19.354 19.354 0 002.065-.1 15.23 15.23 0 001.831-.308v2.871a35.566 35.566 0 01-4.911 1.417 21.115 21.115 0 01-4.263.483 10.963 10.963 0 01-2.8-.322 6.851 6.851 0 01-2.183-1 4.3 4.3 0 01-1.682-1.971 13.281 13.281 0 01-.483-4.38zm25.007-4.922h2.9v25.932l.879.908 3.369.234v2.696h-15.731v-2.7l3.252-.234.85-.908V20.039h-3.955v-2.4zm-.645-13.682a4.391 4.391 0 013.223 1.245 4.242 4.242 0 011.259 3.154 4.479 4.479 0 01-1.245 3.267 4.253 4.253 0 01-3.179 1.274 4.255 4.255 0 01-3.135-1.26 4.291 4.291 0 01-1.26-3.164 4.454 4.454 0 011.245-3.223 4.124 4.124 0 013.094-1.288zm24.3 16.7a5.7 5.7 0 00-5.127 3.135q-1.846 3.135-1.846 8.789 0 5.742 1.831 8.936a5.632 5.632 0 005.088 3.192 5.794 5.794 0 005.245-3.1q1.846-3.105 1.846-8.848 0-5.713-1.86-8.906a5.737 5.737 0 00-5.172-3.194zm.234-3.193q6.914 0 10.986 4.175t4.072 11.294a14.379 14.379 0 01-4.248 10.84q-4.248 4.1-11.279 4.1a14.755 14.755 0 01-10.913-4.146A14.755 14.755 0 01150.684 30q0-6.943 4.248-11.147t11.279-4.204zm16.926 29.945v-2.7l3.076-.234.85-.908V20.039h-4.1v-2.4l8.643-2.812h2.9v3.545a40.108 40.108 0 015.916-2.782 13.327 13.327 0 014.336-.879q4.1 0 6.123 2.461t2.021 7.5v16.08l.791.908 3.166.23v2.7h-14.679v-2.7l2.579-.23.82-.908V26.397a7.663 7.663 0 00-1.29-4.907 5.01 5.01 0 00-4.1-1.567 13.933 13.933 0 00-2.5.264q-1.421.264-3.179.762v19.8l.82.908 2.629.233v2.7zm56.354-28.506v8h-3.6l-.586-4.512-.732-.674a10.121 10.121 0 00-1.992-.7 8.55 8.55 0 00-1.963-.234 5.3 5.3 0 00-3.369.952 3.193 3.193 0 00-1.2 2.651 3.483 3.483 0 00.938 2.432 18.084 18.084 0 004.658 2.842l.117.059q8.643 4.16 8.643 8.467a8.836 8.836 0 01-3.267 7.251q-3.272 2.646-8.984 2.646a30.97 30.97 0 01-4.7-.381 44.494 44.494 0 01-5.2-1.143v-8.877h3.6l.7 5.156.615.674a11.173 11.173 0 002.432.938 10.479 10.479 0 002.607.322 5.587 5.587 0 003.735-1.157 3.949 3.949 0 001.362-3.179q0-2.549-5.186-4.893-1.758-.791-2.725-1.289a16.35 16.35 0 01-5.229-3.647 6.43 6.43 0 01-1.509-4.263 7.771 7.771 0 013.208-6.475 13.721 13.721 0 018.575-2.46 28.293 28.293 0 014.541.366 28.228 28.228 0 014.511 1.128zm3.152 28.506v-2.7l3.076-.234.85-.908V20.039h-4.1v-2.4l8.643-2.812h2.9v3.545a40.107 40.107 0 015.916-2.782 13.327 13.327 0 014.336-.879q4.1 0 6.123 2.461t2.021 7.5v16.08l.791.908 3.16.23v2.7h-14.673v-2.7l2.573-.23.82-.908V26.397a7.663 7.663 0 00-1.289-4.907 5.01 5.01 0 00-4.1-1.567 13.933 13.933 0 00-2.5.264q-1.421.264-3.179.762v19.8l.82.908 2.637.234v2.699zm56.354-28.506v8h-3.6l-.586-4.512-.732-.674a10.121 10.121 0 00-1.992-.7 8.55 8.55 0 00-1.963-.234 5.3 5.3 0 00-3.369.952 3.193 3.193 0 00-1.2 2.651 3.483 3.483 0 00.938 2.432 18.084 18.084 0 004.658 2.842l.117.059q8.643 4.16 8.643 8.467a8.836 8.836 0 01-3.267 7.251q-3.272 2.646-8.985 2.646a30.97 30.97 0 01-4.7-.381 44.494 44.494 0 01-5.2-1.143v-8.877h3.6l.7 5.156.615.674a11.173 11.173 0 002.432.938 10.479 10.479 0 002.607.322 5.587 5.587 0 003.735-1.157 3.949 3.949 0 001.362-3.179q0-2.549-5.186-4.893-1.758-.791-2.725-1.289a16.35 16.35 0 01-5.229-3.647 6.43 6.43 0 01-1.509-4.263 7.771 7.771 0 013.208-6.475 13.721 13.721 0 018.575-2.46 28.293 28.293 0 014.541.366 28.228 28.228 0 014.512 1.128zm6.345 3.662h-3.9v-2.285l4.424-2.52 3.135-6.24h3.779v7.441h8.879v3.6h-8.877V34.69q0 3.369 1.084 4.6t3.9 1.23a19.354 19.354 0 002.065-.1 15.23 15.23 0 001.831-.308v2.871a35.566 35.566 0 01-4.909 1.417 21.115 21.115 0 01-4.263.483 10.963 10.963 0 01-2.8-.322 6.851 6.851 0 01-2.183-1 4.3 4.3 0 01-1.682-1.971 13.281 13.281 0 01-.483-4.38zm24.479-5.1h2.871v18.6q0 3.574 1.333 5.142t4.38 1.567a13.159 13.159 0 002.271-.22 25.2 25.2 0 002.886-.718v-19.16h-3.9v-2.4l8.525-2.812h2.754v26.1l.82.908 3.135.234v2.703h-11.337v-3.311a29.057 29.057 0 01-5.522 2.944 13 13 0 01-4.556.894q-4.16 0-6.2-2.52t-2.036-7.734v-15h-3.9v-2.4zm26.208 29.944v-2.754l3.018-.293.85-.967v-20.83h-3.868v-2.285l3.867-1.787a17.939 17.939 0 011.509-7.617 14.392 14.392 0 014.585-5.537 13.582 13.582 0 013.5-1.86 11.2 11.2 0 013.765-.659 6.509 6.509 0 014.116 1.2 3.849 3.849 0 011.538 3.189 3.1 3.1 0 01-.894 2.183 6.307 6.307 0 01-2.593 1.538l-5.83-5.156a7.6 7.6 0 00-1.758 3.486 23.019 23.019 0 00-.586 5.625v4.072h8.174v3.6h-8.173v20.897l.967.908 4.014.293v2.754zm18.649 0v-2.754l3.018-.293.85-.967v-20.83h-3.867v-2.285l3.867-1.787a17.939 17.939 0 011.509-7.617 14.392 14.392 0 014.585-5.537 13.582 13.582 0 013.5-1.86A11.2 11.2 0 01391.9.001a6.509 6.509 0 014.116 1.2 3.849 3.849 0 011.538 3.189 3.1 3.1 0 01-.894 2.183 6.307 6.307 0 01-2.593 1.538l-5.83-5.156a7.6 7.6 0 00-1.758 3.486 23.019 23.019 0 00-.586 5.625v4.072h8.174v3.6h-8.174v20.897l.967.908 4.014.293v2.754z" fill="#ffe5fb"/><path data-name="Path 2" d="M429.154 44.701v5.039h-30v-5.039z" fill="#f8a"/></g></svg>